<mxfile host="app.diagrams.net" modified="2021-09-29T11:11:24.374Z" agent="5.0 (Macintosh; Intel Mac OS X 10_15_7) AppleWebKit/537.36 (KHTML, like Gecko) Chrome/93.0.4577.82 Safari/537.36" etag="1wtt2f0f-6BCYY5RdPtK" version="15.3.5" type="github">
  <diagram id="7goNbdXUd2WCJwzhgK1Z" name="Page-1">
    <mxGraphModel dx="946" dy="989" grid="1" gridSize="10" guides="1" tooltips="1" connect="1" arrows="1" fold="1" page="1" pageScale="1" pageWidth="827" pageHeight="1169" math="0" shadow="0">
      <root>
        <mxCell id="0" />
        <mxCell id="1" parent="0" />
        <mxCell id="PWlcWitjziCFwbdDP-pY-1" value="Orders" style="swimlane;childLayout=stackLayout;horizontal=1;startSize=30;horizontalStack=0;rounded=1;fontSize=14;fontStyle=0;strokeWidth=2;resizeParent=0;resizeLast=1;shadow=0;dashed=0;align=center;hachureGap=4;pointerEvents=0;" parent="1" vertex="1">
          <mxGeometry x="460" y="120" width="240" height="180" as="geometry" />
        </mxCell>
        <mxCell id="JLCvKj9RbaMuWFraMXtx-5" value="- Add_dish(Dish, quantity = 1)&lt;br&gt;-@dishes = [ ]&lt;br&gt;-total = [dishes.each.price]&lt;br&gt;-complete_order" style="text;html=1;align=center;verticalAlign=middle;resizable=0;points=[];autosize=1;strokeColor=none;fillColor=none;sketch=1;hachureGap=4;pointerEvents=0;fontFamily=Architects Daughter;fontSource=https%3A%2F%2Ffonts.googleapis.com%2Fcss%3Ffamily%3DArchitects%2BDaughter;fontSize=18;" parent="PWlcWitjziCFwbdDP-pY-1" vertex="1">
          <mxGeometry y="30" width="240" height="150" as="geometry" />
        </mxCell>
        <mxCell id="PWlcWitjziCFwbdDP-pY-3" value="Dish" style="swimlane;childLayout=stackLayout;horizontal=1;startSize=30;horizontalStack=0;rounded=1;fontSize=14;fontStyle=0;strokeWidth=2;resizeParent=0;resizeLast=1;shadow=0;dashed=0;align=center;hachureGap=4;pointerEvents=0;" parent="1" vertex="1">
          <mxGeometry x="60" y="140" width="160" height="120" as="geometry" />
        </mxCell>
        <mxCell id="JLCvKj9RbaMuWFraMXtx-3" value="-Price&lt;br&gt;-Name" style="text;html=1;align=center;verticalAlign=middle;resizable=0;points=[];autosize=1;strokeColor=none;fillColor=none;sketch=1;hachureGap=4;pointerEvents=0;fontFamily=Architects Daughter;fontSource=https%3A%2F%2Ffonts.googleapis.com%2Fcss%3Ffamily%3DArchitects%2BDaughter;fontSize=18;" parent="PWlcWitjziCFwbdDP-pY-3" vertex="1">
          <mxGeometry y="30" width="160" height="90" as="geometry" />
        </mxCell>
        <mxCell id="JLCvKj9RbaMuWFraMXtx-1" value="Text" style="swimlane;childLayout=stackLayout;horizontal=1;startSize=30;horizontalStack=0;rounded=1;fontSize=14;fontStyle=0;strokeWidth=2;resizeParent=0;resizeLast=1;shadow=0;dashed=0;align=center;hachureGap=4;pointerEvents=0;" parent="1" vertex="1">
          <mxGeometry x="60" y="350" width="300" height="190" as="geometry" />
        </mxCell>
        <mxCell id="JLCvKj9RbaMuWFraMXtx-4" value="-Text(order)&lt;br&gt;-@text_with_order&lt;br&gt;" style="text;html=1;align=center;verticalAlign=middle;resizable=0;points=[];autosize=1;strokeColor=none;sketch=1;hachureGap=4;pointerEvents=0;fontFamily=Architects Daughter;fontSource=https%3A%2F%2Ffonts.googleapis.com%2Fcss%3Ffamily%3DArchitects%2BDaughter;fontSize=18;" parent="JLCvKj9RbaMuWFraMXtx-1" vertex="1">
          <mxGeometry y="30" width="300" height="160" as="geometry" />
        </mxCell>
        <mxCell id="JLCvKj9RbaMuWFraMXtx-14" value="" style="edgeStyle=none;orthogonalLoop=1;jettySize=auto;html=1;endArrow=open;sourcePerimeterSpacing=8;targetPerimeterSpacing=8;fontSize=16;sketch=1;curved=1;rounded=0;fontFamily=Architects Daughter;fontSource=https%3A%2F%2Ffonts.googleapis.com%2Fcss%3Ffamily%3DArchitects%2BDaughter;startSize=14;endSize=14;entryX=1.006;entryY=0.422;entryDx=0;entryDy=0;entryPerimeter=0;exitX=-0.009;exitY=0.407;exitDx=0;exitDy=0;exitPerimeter=0;" parent="1" source="JLCvKj9RbaMuWFraMXtx-5" target="JLCvKj9RbaMuWFraMXtx-3" edge="1">
          <mxGeometry width="120" relative="1" as="geometry">
            <mxPoint x="320" y="209.5" as="sourcePoint" />
            <mxPoint x="440" y="209.5" as="targetPoint" />
            <Array as="points" />
          </mxGeometry>
        </mxCell>
        <mxCell id="JLCvKj9RbaMuWFraMXtx-15" value="" style="edgeStyle=none;orthogonalLoop=1;jettySize=auto;html=1;endArrow=open;sourcePerimeterSpacing=8;targetPerimeterSpacing=8;fontSize=16;sketch=1;curved=1;rounded=0;fontFamily=Architects Daughter;fontSource=https%3A%2F%2Ffonts.googleapis.com%2Fcss%3Ffamily%3DArchitects%2BDaughter;startSize=14;endSize=14;exitX=0.48;exitY=-0.011;exitDx=0;exitDy=0;exitPerimeter=0;entryX=0.434;entryY=1.007;entryDx=0;entryDy=0;entryPerimeter=0;" parent="1" source="JLCvKj9RbaMuWFraMXtx-1" target="JLCvKj9RbaMuWFraMXtx-5" edge="1">
          <mxGeometry width="120" relative="1" as="geometry">
            <mxPoint x="290" y="330" as="sourcePoint" />
            <mxPoint x="470" y="300" as="targetPoint" />
            <Array as="points" />
          </mxGeometry>
        </mxCell>
        <mxCell id="JLCvKj9RbaMuWFraMXtx-16" value="Restaurant" style="swimlane;childLayout=stackLayout;horizontal=1;startSize=30;horizontalStack=0;rounded=1;fontSize=14;fontStyle=0;strokeWidth=2;resizeParent=0;resizeLast=1;shadow=0;dashed=0;align=center;hachureGap=4;pointerEvents=0;" parent="1" vertex="1">
          <mxGeometry x="429" y="510" width="300" height="190" as="geometry" />
        </mxCell>
        <mxCell id="JLCvKj9RbaMuWFraMXtx-17" value="-Check_total(dishes, total)&lt;br&gt;-Send_text(@text_with_order)" style="text;html=1;align=center;verticalAlign=middle;resizable=0;points=[];autosize=1;strokeColor=none;sketch=1;hachureGap=4;pointerEvents=0;fontFamily=Architects Daughter;fontSource=https://fonts.googleapis.com/css?family=Architects+Daughter;fontSize=18;" parent="JLCvKj9RbaMuWFraMXtx-16" vertex="1">
          <mxGeometry y="30" width="300" height="160" as="geometry" />
        </mxCell>
        <mxCell id="JLCvKj9RbaMuWFraMXtx-18" value="" style="edgeStyle=none;orthogonalLoop=1;jettySize=auto;html=1;endArrow=open;sourcePerimeterSpacing=8;targetPerimeterSpacing=8;fontSize=16;sketch=1;curved=1;rounded=0;fontFamily=Architects Daughter;fontSource=https%3A%2F%2Ffonts.googleapis.com%2Fcss%3Ffamily%3DArchitects%2BDaughter;startSize=14;endSize=14;exitX=0.327;exitY=-0.011;exitDx=0;exitDy=0;exitPerimeter=0;entryX=1;entryY=0.4;entryDx=0;entryDy=0;entryPerimeter=0;" parent="1" source="JLCvKj9RbaMuWFraMXtx-16" target="JLCvKj9RbaMuWFraMXtx-4" edge="1">
          <mxGeometry width="120" relative="1" as="geometry">
            <mxPoint x="400" y="430" as="sourcePoint" />
            <mxPoint x="520" y="430" as="targetPoint" />
            <Array as="points" />
          </mxGeometry>
        </mxCell>
        <mxCell id="JLCvKj9RbaMuWFraMXtx-19" value="" style="edgeStyle=none;orthogonalLoop=1;jettySize=auto;html=1;endArrow=open;sourcePerimeterSpacing=8;targetPerimeterSpacing=8;fontSize=16;sketch=1;curved=1;rounded=0;fontFamily=Architects Daughter;fontSource=https%3A%2F%2Ffonts.googleapis.com%2Fcss%3Ffamily%3DArchitects%2BDaughter;startSize=14;endSize=14;exitX=0.5;exitY=0;exitDx=0;exitDy=0;entryX=0.603;entryY=1.007;entryDx=0;entryDy=0;entryPerimeter=0;" parent="1" source="JLCvKj9RbaMuWFraMXtx-16" target="JLCvKj9RbaMuWFraMXtx-5" edge="1">
          <mxGeometry width="120" relative="1" as="geometry">
            <mxPoint x="560" y="420" as="sourcePoint" />
            <mxPoint x="680" y="420" as="targetPoint" />
            <Array as="points" />
          </mxGeometry>
        </mxCell>
      </root>
    </mxGraphModel>
  </diagram>
</mxfile>
